<svg width="124" height="70" fill="none" xmlns="http://www.w3.org/2000/svg"><path d="M38.322 54.72l1.037.136c-.113.714-.404 1.275-.873 1.681-.464.403-1.037.604-1.716.604-.852 0-1.538-.278-2.057-.832-.516-.559-.773-1.358-.773-2.397 0-.672.11-1.26.333-1.764.223-.504.561-.88 1.014-1.13a3.013 3.013 0 011.488-.381c.676 0 1.229.172 1.659.515.43.34.705.825.826 1.453l-1.026.159c-.097-.418-.271-.733-.521-.944a1.33 1.33 0 00-.897-.316c-.53 0-.963.191-1.294.574-.332.379-.499.98-.499 1.805 0 .836.16 1.443.48 1.822.321.379.74.568 1.255.568.414 0 .76-.127 1.037-.38.277-.254.453-.645.527-1.172zm1.946-3.943h1.054v2.59h2.924v-2.59h1.055V57h-1.055v-2.76h-2.924V57h-1.054v-6.223zm6.627 0h1.054v4.746l2.924-4.746h1.137V57h-1.055v-4.717L48.031 57h-1.136v-6.223zm10.464 0v2.69c.336 0 .573-.065.71-.194.136-.129.335-.504.597-1.125.246-.59.467-.966.662-1.13.191-.16.496-.24.914-.24h.387v.872l-.287-.005c-.282 0-.461.04-.54.123-.081.085-.206.341-.374.767-.156.406-.301.688-.434.844-.133.156-.34.299-.621.428.457.12.902.543 1.336 1.265L60.869 57h-1.16l-1.13-1.928c-.231-.39-.432-.646-.604-.767a1.04 1.04 0 00-.616-.182V57h-1.078v-2.877c-.234 0-.437.06-.61.182-.171.117-.372.373-.603.767L53.938 57h-1.16l1.154-1.928c.437-.722.884-1.144 1.341-1.265-.312-.145-.53-.301-.656-.47-.125-.171-.312-.577-.562-1.218-.086-.215-.178-.347-.276-.398-.101-.051-.252-.076-.45-.076l-.311.005v-.873h.146c.406 0 .691.026.855.076.169.047.317.15.446.311.133.156.304.484.515.984.258.614.454.987.586 1.12.137.132.375.199.715.199v-2.69h1.078zm8.526 4.22l1.09.134c-.172.637-.49 1.13-.956 1.482-.464.352-1.058.528-1.78.528-.91 0-1.634-.28-2.169-.838-.53-.563-.797-1.35-.797-2.362 0-1.047.27-1.859.809-2.437.54-.578 1.238-.867 2.098-.867.832 0 1.511.283 2.039.85.527.566.79 1.363.79 2.39 0 .063-.001.156-.005.281h-4.64c.038.684.232 1.207.58 1.57.347.364.78.545 1.3.545.387 0 .717-.101.99-.304.274-.203.49-.528.65-.973zm-3.463-1.706h3.475c-.047-.523-.18-.916-.399-1.178a1.616 1.616 0 00-1.307-.61c-.484 0-.892.163-1.224.487-.328.325-.51.758-.545 1.301zm5.889-2.514h1.054v2.59h2.924v-2.59h1.055V57h-1.055v-2.76h-2.924V57h-1.054v-6.223zm6.626 0h1.055v4.746l2.924-4.746h1.137V57h-1.055v-4.717L76.074 57h-1.136v-6.223zm10.963 4.22l1.09.134c-.172.637-.49 1.13-.955 1.482-.465.352-1.058.528-1.781.528-.91 0-1.633-.28-2.168-.838-.531-.563-.797-1.35-.797-2.362 0-1.047.27-1.859.809-2.437.539-.578 1.238-.867 2.097-.867.832 0 1.512.283 2.04.85.527.566.79 1.363.79 2.39 0 .063-.002.156-.006.281h-4.64c.039.684.232 1.207.58 1.57.348.364.781.545 1.3.545.388 0 .718-.101.991-.304.273-.203.49-.528.65-.973zm-3.463-1.706h3.475c-.047-.523-.18-.916-.398-1.178a1.616 1.616 0 00-1.307-.61 1.69 1.69 0 00-1.225.487c-.328.325-.51.758-.544 1.301zM48.5 62.777h2.432c.597 0 1.04.051 1.33.153.293.097.543.279.75.545.21.265.316.584.316.955 0 .297-.062.556-.187.779a1.49 1.49 0 01-.551.55c.293.098.535.282.726.552.196.265.293.582.293.949-.039.59-.25 1.027-.632 1.312-.383.285-.94.428-1.67.428H48.5v-6.223zm1.055 2.62h1.125c.449 0 .758-.024.925-.07a.978.978 0 00.452-.282.736.736 0 00.199-.516c0-.328-.117-.556-.352-.685-.23-.13-.627-.194-1.19-.194h-1.16v1.747zm0 2.736h1.388c.598 0 1.008-.069 1.23-.205.224-.14.34-.381.352-.721 0-.2-.064-.383-.193-.55a.82.82 0 00-.504-.323c-.207-.047-.539-.07-.996-.07h-1.277v1.869zm9.433-1.137l1.09.135c-.172.637-.49 1.13-.955 1.482-.465.352-1.058.528-1.781.528-.91 0-1.633-.28-2.168-.838-.531-.563-.797-1.35-.797-2.362 0-1.047.27-1.859.808-2.437.54-.578 1.239-.867 2.098-.867.832 0 1.512.283 2.04.85.527.566.79 1.363.79 2.39 0 .063-.002.156-.006.281h-4.64c.039.684.232 1.207.58 1.57.348.364.781.545 1.3.545.387 0 .718-.101.99-.304.274-.203.491-.528.651-.973zm-3.463-1.705H59c-.047-.523-.18-.916-.398-1.178a1.616 1.616 0 00-1.307-.61c-.485 0-.893.163-1.225.487-.328.324-.51.758-.545 1.301zm9.944 1.43l1.037.135c-.113.714-.404 1.275-.873 1.681-.465.402-1.037.604-1.717.604-.851 0-1.537-.278-2.057-.832-.515-.559-.773-1.358-.773-2.397 0-.672.111-1.26.334-1.764.223-.503.56-.88 1.014-1.13a3.013 3.013 0 011.488-.381c.676 0 1.228.172 1.658.515.43.34.705.825.826 1.454l-1.025.158c-.098-.418-.272-.733-.522-.944a1.33 1.33 0 00-.896-.316c-.531 0-.963.191-1.295.574-.332.379-.498.98-.498 1.805 0 .836.16 1.443.48 1.822.32.379.739.568 1.254.568.414 0 .76-.126 1.037-.38.278-.254.453-.645.528-1.172zm6 1.511c-.39.332-.768.567-1.131.704-.36.136-.746.205-1.16.205-.684 0-1.21-.166-1.576-.498-.368-.336-.551-.764-.551-1.284a1.738 1.738 0 01.75-1.441 2.6 2.6 0 01.761-.346 7.73 7.73 0 01.938-.158c.852-.102 1.478-.223 1.88-.363.005-.145.007-.237.007-.276 0-.43-.1-.732-.3-.908-.269-.238-.669-.357-1.2-.357-.496 0-.864.088-1.102.263-.234.172-.408.479-.521.92l-1.032-.14c.094-.442.249-.797.463-1.067.215-.273.526-.482.932-.627.406-.148.877-.222 1.412-.222.531 0 .963.062 1.295.187.332.125.576.283.732.475.157.187.266.426.328.715.036.18.053.504.053.972v1.407c0 .98.022 1.601.065 1.863.047.258.136.506.27.744H71.68a2.235 2.235 0 01-.211-.768zm-.088-2.355c-.383.156-.957.289-1.723.398-.433.063-.74.133-.92.211a.911.911 0 00-.562.844.9.9 0 00.316.703c.215.188.527.281.938.281.406 0 .767-.087 1.084-.263.316-.18.549-.424.697-.733.113-.238.17-.59.17-1.054v-.387z" fill="#444"/><path fill-rule="evenodd" clip-rule="evenodd" d="M3 1h118a2 2 0 012 2v50a2 2 0 01-2 2h-16v1h16a3 3 0 003-3V3a3 3 0 00-3-3H3a3 3 0 00-3 3v50a3 3 0 003 3h15v-1H3a2 2 0 01-2-2V3a2 2 0 012-2z" fill="#CDCDCD"/><path d="M48.79 37.66c-1.168 0-2.096-.224-2.784-.672-.688-.449-1.184-1.096-1.488-1.944-.288-.848-.432-1.856-.432-3.024h2.568c0 .575.048 1.143.144 1.703.096.544.296 1 .6 1.369.32.352.8.528 1.44.528.704 0 1.208-.2 1.512-.6.304-.417.496-.969.576-1.657.08-.703.12-1.495.12-2.375 0-.88-.048-1.625-.144-2.232-.096-.625-.296-1.096-.6-1.416-.304-.337-.784-.505-1.44-.505-.528 0-.976.168-1.344.505a3.01 3.01 0 00-.816 1.104h-2.184V18.027h8.376v2.568h-6.048l-.168 5.375c.32-.335.712-.6 1.176-.791.48-.192 1.024-.288 1.632-.288 1.056 0 1.88.248 2.472.744.608.495 1.032 1.175 1.272 2.04.256.864.384 1.856.384 2.976 0 .991-.072 1.92-.216 2.783-.144.848-.4 1.593-.768 2.232a3.787 3.787 0 01-1.464 1.465c-.624.352-1.416.528-2.376.528zm12.578-.192v-19.44h2.712v8.64h1.008l3.48-8.64h2.712l-3.84 9.24 4.32 10.2h-2.712l-3.936-9.48H64.08v9.48h-2.712zm12.188 0v-19.44h7.392v2.016h-4.68v17.424h-2.712z" fill="#000"/></svg>